<svg width="43" height="25" viewBox="0 0 43 25" fill="none" xmlns="http://www.w3.org/2000/svg">
<g clip-path="url(#clip0_9_2)">
<path d="M24.4558 12.6311C24.4558 19.3426 19.0346 24.7836 12.3469 24.7836C5.65931 24.7836 0.238476 19.3443 0.238476 12.6311C0.238476 5.91803 5.65972 0.479097 12.3469 0.479097C19.0342 0.479097 24.4558 5.91967 24.4558 12.6311ZM37.7394 12.6311C37.7394 18.9492 35.0286 24.0705 31.685 24.0705C28.3414 24.0705 25.6305 18.9475 25.6305 12.6311C25.6305 6.31475 28.3414 1.1918 31.685 1.1918C35.0286 1.1918 37.7394 6.31475 37.7394 12.6311ZM43.1726 12.6311C43.1726 18.2918 42.2191 22.8803 41.0432 22.8803C39.8672 22.8803 38.9137 18.2902 38.9137 12.6311C38.9137 6.97213 39.8672 2.38197 41.0436 2.38197C42.2199 2.38197 43.1726 6.9709 43.1726 12.6311ZM76.591 1.53279L76.6248 1.52541V1.26516H69.7385L63.3445 16.2447L56.9504 1.26516H49.5296V1.52541L49.563 1.53279C50.8199 1.81557 51.458 2.23729 51.458 3.7582V21.5635C51.458 23.0844 50.8174 23.5061 49.5605 23.7889L49.5272 23.7963V24.0574H54.5619V23.7971L54.5286 23.7898C53.2717 23.507 52.6335 23.0852 52.6335 21.5643V4.79098L60.8474 24.0574H61.3133L69.7665 4.25369V22.0041C69.6588 23.2053 69.0264 23.5762 67.8883 23.8324L67.8546 23.8402V24.0984H76.6248V23.8402L76.591 23.8324C75.4517 23.5762 74.8041 23.2053 74.6964 22.0041L74.6906 3.7582H74.6964C74.6964 2.23729 75.3345 1.81557 76.591 1.53279ZM80.597 13.3279C80.7406 10.1287 81.8931 7.81967 83.8272 7.77992C84.4238 7.78975 84.9242 7.98484 85.3131 8.36024C86.1396 9.15983 86.5281 10.8307 86.4681 13.3279H80.597ZM80.5103 14.2295H90.7895V14.1865C90.7603 11.7402 90.0494 9.83729 88.6786 8.53074C87.4936 7.40164 85.7391 6.78033 83.8963 6.78033H83.8551C82.8988 6.78033 81.7257 7.01147 80.891 7.43033C79.9408 7.86885 79.1029 8.52459 78.4055 9.38525C77.283 10.7717 76.603 12.6455 76.4377 14.7512C76.4323 14.8143 76.4278 14.8775 76.4233 14.9406C76.4188 15.0037 76.4159 15.0602 76.413 15.1205C76.3984 15.4166 76.3934 15.713 76.3982 16.0094C76.5096 20.7787 79.0942 24.5902 83.6849 24.5902C87.7144 24.5902 90.0609 21.6541 90.646 17.7131L90.3504 17.6094C89.3224 19.7275 87.4763 21.0111 85.3752 20.8545C82.5069 20.6406 80.3097 17.7418 80.5091 14.2303L80.5103 14.2295ZM102.412 20.6926C102.074 21.4898 101.371 21.9283 100.428 21.9283C99.4853 21.9283 98.6235 21.2832 98.0112 20.1111C97.3534 18.8529 97.0072 17.0742 97.0072 14.9672C97.0072 10.582 98.3755 7.74549 100.493 7.74549C101.38 7.74549 102.079 8.18402 102.412 8.94918V20.6926ZM109.23 23.8188C107.973 23.5225 107.335 23.0811 107.335 21.4828V0.216393L99.6987 2.45902V2.73361L99.7455 2.72992C100.799 2.64508 101.514 2.79016 101.928 3.17213C102.253 3.47131 102.412 3.93033 102.412 4.57623V7.4918C101.659 7.0127 100.763 6.77951 99.6765 6.77951C97.4726 6.77951 95.4583 7.70451 94.0056 9.38443C92.4913 11.1352 91.6908 13.5279 91.6908 16.3029C91.6903 21.259 94.138 24.5902 97.781 24.5902C99.9121 24.5902 101.627 23.4262 102.412 21.4631V24.0984H109.264V23.8254L109.23 23.8188ZM115.78 3.10861C115.78 1.56106 114.609 0.393852 113.056 0.393852C111.511 0.393852 110.301 1.58647 110.301 3.10861C110.301 4.63074 111.512 5.82336 113.056 5.82336C114.609 5.82336 115.78 4.65615 115.78 3.10861ZM117.582 23.8188C116.325 23.5225 115.687 23.0811 115.687 21.4828H115.682V6.82992L108.829 8.79098V9.05738L108.871 9.06106C110.353 9.19262 110.759 9.70164 110.759 11.4287V24.0984H117.617V23.8254L117.582 23.8188ZM135.141 23.8188C133.884 23.5225 133.246 23.0811 133.246 21.4828V6.82992L126.722 8.72623V8.99344L126.76 8.99754C127.973 9.12459 128.323 9.6627 128.323 11.3975V20.6598C127.919 21.457 127.161 21.9303 126.242 21.9623C124.752 21.9623 123.932 20.9594 123.932 19.1385V6.83033L117.08 8.79139V9.05738L117.121 9.06106C118.603 9.19221 119.01 9.70123 119.01 11.4287V19.2676C119.006 19.8149 119.054 20.3612 119.152 20.8996L119.276 21.4344C119.856 23.5066 121.376 24.5902 123.757 24.5902C125.774 24.5902 127.543 23.3455 128.321 21.3979V24.1029H135.174V23.8299L135.141 23.8188ZM161.762 24.0984V23.825L161.728 23.8172C160.364 23.5037 159.833 22.9127 159.833 21.7094V11.7422C159.833 8.63443 158.082 6.77951 155.149 6.77951C153.011 6.77951 151.208 8.01106 150.514 9.92951C149.962 7.89672 148.376 6.77951 146.029 6.77951C143.969 6.77951 142.354 7.86352 141.661 9.69467V6.83115L134.808 8.71188V8.97992L134.849 8.98361C136.314 9.11311 136.738 9.63688 136.738 11.3197V24.0984H143.132V23.8254L143.098 23.8172C142.01 23.5623 141.659 23.0975 141.659 21.9049V10.4803C141.947 9.81024 142.527 9.01639 143.673 9.01639C145.098 9.01639 145.82 10 145.82 11.9377V24.0984H152.215V23.8254L152.181 23.8172C151.093 23.5623 150.742 23.0975 150.742 21.9049V11.741C150.745 11.3609 150.715 10.9814 150.652 10.6066C150.957 9.87828 151.57 9.01639 152.764 9.01639C154.208 9.01639 154.91 9.97172 154.91 11.9377V24.0984H161.762Z" fill="black"/>
</g>
<defs>
<clipPath id="clip0_9_2">
<rect width="43" height="25" fill="white"/>
</clipPath>
</defs>
</svg>
